# xmcd
#
# Track frame offsets: 
#        150
#        14000
#        29900
#        43195
#        57822
#        70025
#        83875
#        98405
#        114810
#        129515
#        141562
#        160345
#        178867
#        194910
#        211067
#
# Disc length: 3050 seconds
#
# Revision: 3
# Processed by: cddbd v1.5.2PL0 Copyright (c) Steve Scherf et al.
# Submitted via: ExactAudioCopy v0.99pb5
#
DISCID=db0be80f
DTITLE=Various Artist - Classic Country Vol. 11 1980-1984 Disc 1
DYEAR=1999
DGENRE=Country
TTITLE0=John Anderson - Swingin'
TTITLE1=Johnny Lee - Lookin' For Love
TTITLE2=Larry Gatlin And The Gatlin Brothers - Houston (Means I'm One 
TTITLE2=Day Closer To You)
TTITLE3=Ronnie Milsap - (There's) No Gettin' Over Me
TTITLE4=John Conlee - Common Man
TTITLE5=Merle Haggard - That's The Way Love Goes
TTITLE6=Alabama - Love In The First Degree
TTITLE7=Barbara Mandrell - I Was Country When Country Wasn't Cool
TTITLE8=Eddie Rabbitt - Drivin' My Life Away
TTITLE9=Oak Ridge Boys - Elvira
TTITLE10=Kenny Rogers And Dolly Parton - Islands In The Stream
TTITLE11=Don Williams - I Believe In You
TTITLE12=Willie Nelson - Always On My Mind
TTITLE13=T.G. Sheppard - Party Time
TTITLE14=Hank Williams Jr. - All My Rowdy Friends (Have Settled Down)
EXTD=Dale Peters YEAR: 1999
EXTT0=
EXTT1=
EXTT2=
EXTT3=
EXTT4=
EXTT5=
EXTT6=
EXTT7=
EXTT8=
EXTT9=
EXTT10=
EXTT11=
EXTT12=
EXTT13=
EXTT14=
PLAYORDER=
